<svg data-v-0dd9719b="" version="1.0" xmlns="http://www.w3.org/2000/svg" xmlns:xlink="http://www.w3.org/1999/xlink" width="100%" height="100%" viewBox="0 0 340.000000 250.000000" preserveAspectRatio="xMidYMid meet" color-interpolation-filters="sRGB" style="margin: auto;"> <rect data-v-0dd9719b="" x="0" y="0" width="100%" height="100%" fill="#ffffff" fill-opacity="1" class="background"></rect> <rect data-v-0dd9719b="" x="0" y="0" width="100%" height="100%" fill="url(#watermark)" fill-opacity="1" class="watermarklayer"></rect> <g data-v-0dd9719b="" fill="#333333" class="icon-text-wrapper icon-svg-group iconsvg" transform="translate(53.86531066894531,95)"><g class="iconsvg-imagesvg" transform="translate(0,0)"><g><rect fill="#333333" fill-opacity="0" stroke-width="2" x="0" y="0" width="60" height="60" class="image-rect"></rect> <svg x="0" y="0" width="60" height="60" filtersec="colorsb5930992921" class="image-svg-svg primary" style="overflow: visible;"><svg xmlns="http://www.w3.org/2000/svg" viewBox="-0.053900331258773804 -0.006093347445130348 75.0999984741211 75.0999984741211"><g><g><path d="M66.41 13.59L61.51 32A24.62 24.62 0 1 1 43 13.53l18.43-4.92a37.55 37.55 0 1 0 5 5z" fill="#333333"></path><path d="M58.14 32.69L64.05 11l-21.67 5.9a21.2 21.2 0 1 0 15.76 15.79zM31.88 43.15a8 8 0 1 1 11.29 0 8 8 0 0 1-11.29 0z" fill="#fd5f00"></path></g></g></svg></svg> <!----></g></g> <g transform="translate(67,3.6637496948242188)"><g data-gra="path-name" fill-rule="" class="tp-name iconsvg-namesvg" transform="translate(0,0)"><g transform="scale(1)"><g><path d="M12.38-23.33L12.38-32.51 17.71-32.27 17.71 3.9 12.38 3.9 12.38-3.03Q11.44-2.5 10.29-1.91 9.14-1.31 7.93-0.72 6.72-0.12 5.58 0.41 4.43 0.94 3.49 1.31L3.49 1.31 1.93-4.14Q2.99-4.51 4.31-5.02 5.62-5.54 7.01-6.13 8.41-6.72 9.78-7.36 11.15-8 12.38-8.61L12.38-8.61 12.38-18 3.94-18 3.94-23.33 12.38-23.33ZM33.5-8.36L38.58-6.64Q38.54-5.62 38.42-4.55L38.42-4.55Q38.34-3.65 38.21-2.62 38.09-1.6 37.97-0.74L37.97-0.74Q37.64 1.44 36.61 2.32 35.59 3.2 34.07 3.36L34.07 3.36Q33.37 3.44 32.23 3.49 31.08 3.53 29.83 3.55 28.58 3.57 27.39 3.53 26.2 3.49 25.42 3.4L25.42 3.4Q21.4 2.91 21.4-1.19L21.4-1.19 21.4-32.51 26.73-32.19 26.73-21.53Q29.03-22.71 31.06-24.11 33.09-25.5 34.81-26.81L34.81-26.81 37.64-22.18Q35.63-20.71 32.8-19.07 29.97-17.43 26.73-16.07L26.73-16.07 26.73-3.49Q26.73-2.75 26.9-2.21 27.06-1.68 27.72-1.6L27.72-1.6Q28.91-1.48 29.68-1.48 30.46-1.48 31.45-1.6L31.45-1.6Q32.19-1.68 32.55-2.11 32.92-2.54 33.05-3.4L33.05-3.4Q33.17-4.26 33.23-5.15 33.29-6.03 33.37-6.72L33.37-6.72Q33.46-7.54 33.5-8.36L33.5-8.36ZM77.37-29.19L77.37-24.48 43.75-24.48 43.75-29.19 57.89-29.19 57.11-32.47 62.57-32.72 63.3-29.19 77.37-29.19ZM73.68-9.14L63.59-9.14 63.59-2.34Q63.59-0.33 63.37 0.9 63.14 2.13 62.53 2.81 61.91 3.49 60.82 3.77 59.74 4.06 58.06 4.22L58.06 4.22 54.98 4.51 53.26-0.53 56.46-0.9Q57.65-1.07 57.95-1.64 58.26-2.21 58.26-3.81L58.26-3.81 58.26-9.14 47.36-9.14 47.36-22.3 73.68-22.3 73.68-9.14ZM52.64-17.59L52.64-13.78 68.43-13.78 68.43-17.59 52.64-17.59ZM51.05-8.81L54.9-5.54Q52.23-2.75 49.88-0.59 47.52 1.56 45.06 3.44L45.06 3.44 41.66-0.74Q43.09-1.72 44.3-2.64 45.51-3.57 46.62-4.51 47.72-5.45 48.79-6.5 49.86-7.54 51.05-8.81L51.05-8.81ZM65.85-4.96L68.8-8.77Q71.59-6.81 74.19-4.82 76.79-2.83 79.21-0.61L79.21-0.61 75.97 3.65Q73.84 1.35 71.28-0.76 68.72-2.87 65.85-4.96L65.85-4.96ZM119.35-0.57L117.51 3.77Q115.74 3.24 113.88 2.6 112.01 1.97 110.17 1.23 108.32 0.49 106.58-0.37 104.84-1.23 103.36-2.3L103.36-2.3 103.36 4.1 98.28 4.1 98.28-2.09Q96.68-0.94 94.79-0.02 92.91 0.9 91.04 1.66 89.17 2.42 87.41 2.97 85.65 3.53 84.25 3.94L84.25 3.94 82.25-0.33Q83.68-0.7 85.38-1.15 87.08-1.6 88.85-2.21 90.61-2.83 92.35-3.57 94.09-4.31 95.61-5.21L95.61-5.21 84.01-5.21 84.01-9.22 98.28-9.22 98.28-10.82 87.13-10.82 87.13-20.13Q86.63-19.6 86.1-19.11 85.57-18.61 84.99-18.12L84.99-18.12 81.96-21.44Q83.8-23.37 85.05-24.74 86.31-26.12 87.25-27.39 88.19-28.66 88.99-29.99 89.79-31.32 90.81-33.21L90.81-33.21 94.96-31.49Q94.71-30.96 94.42-30.38 94.14-29.81 93.81-29.23L93.81-29.23 100.57-29.23 99.71-32.59 104.8-32.88 105.58-29.23 116.6-29.23 116.6-25.75 105.21-25.75 105.21-24.23 115.46-24.23 115.46-20.91 105.21-20.91 105.21-19.35 115.46-19.35 115.46-15.99 105.21-15.99 105.21-14.47 116.81-14.47 116.81-10.82 103.36-10.82 103.36-9.22 117.67-9.22 117.67-5.21 105.9-5.21Q108.65-3.65 111.93-2.54 115.21-1.44 119.35-0.57L119.35-0.57ZM100.33-24.23L100.33-25.75 92.09-25.75 92.09-24.23 100.33-24.23ZM100.33-19.35L100.33-20.91 92.09-20.91 92.09-19.35 100.33-19.35ZM92.09-15.99L92.09-14.47 100.33-14.47 100.33-15.99 92.09-15.99ZM142.89-23.37L142.89-25.01 133.78-25.01 133.78-29.56 142.89-29.56 142.89-32.59 147.72-32.39 147.72-29.56 157.03-29.56 157.03-25.01 147.72-25.01 147.72-23.37 156.46-23.37 156.46-12.34 147.72-12.34 147.72-8.86 150.27-12.1Q151.86-11.19 153.85-9.84 155.84-8.49 157.69-7.01L157.69-7.01 155.14-2.67Q153.14-4.51 151.17-6.03 149.2-7.54 147.72-8.41L147.72-8.41 147.72-2.38 142.89-2.38 142.89-8.24Q141.29-6.52 139.42-5.04 137.56-3.57 135.55-2.38L135.55-2.38 132.72-6.6Q135.01-7.67 137.23-9.14 139.44-10.62 141.16-12.34L141.16-12.34 134.36-12.34 134.36-23.37 142.89-23.37ZM133-24.6L129.03-21.85Q128.66-22.67 128.06-23.76 127.47-24.85 126.81-25.93 126.16-27.02 125.5-27.98 124.85-28.95 124.35-29.52L124.35-29.52 128.29-31.94Q128.82-31.28 129.46-30.38 130.09-29.48 130.73-28.47 131.36-27.47 131.96-26.47 132.55-25.46 133-24.6L133-24.6ZM144.98-0.98L144.98-0.98Q146.74-0.94 148.63-0.96 150.51-0.98 152.38-1.03 154.24-1.07 156.05-1.13 157.85-1.19 159.45-1.31L159.45-1.31 158.18 3.4Q156.91 3.49 155.29 3.53 153.67 3.57 151.97 3.61 150.27 3.65 148.65 3.65 147.03 3.65 145.76 3.61L145.76 3.61Q142.8 3.53 140.59 3.44 138.38 3.36 136.53 2.99 134.69 2.62 133.02 1.8 131.36 0.98 129.48-0.61L129.48-0.61Q129.07-0.08 128.66 0.39 128.25 0.86 127.78 1.35 127.31 1.84 126.75 2.42 126.2 2.99 125.5 3.69L125.5 3.69 122.18 0.12Q123.62-1.31 124.93-2.64 126.24-3.98 127.22-5.17L127.22-5.17 127.22-15.17 123.62-15.17 123.62-20.21 131.98-20.21 131.98-3.94Q133.46-2.83 134.81-2.23 136.16-1.64 137.64-1.37 139.11-1.11 140.88-1.07 142.64-1.03 144.98-0.98ZM138.83-19.31L138.83-16.4 142.89-16.4 142.89-19.31 138.83-19.31ZM151.91-19.31L147.72-19.31 147.72-16.4 151.91-16.4 151.91-19.31Z" transform="translate(-1.9300000667572021, 33.209999084472656)"></path></g> <!----> <!----> <!----> <!----> <!----> <!----> <!----></g></g> <g data-gra="path-slogan" fill-rule="" class="tp-slogan iconsvg-slogansvg" fill="#FD5F00" transform="translate(-7.75,42.720001220703125)"><rect width="0"></rect> <rect x="176.02000427246094" width="0"></rect> <g transform="translate(0,0)"><g transform="scale(1)"><path d="M4.13-7.64L2.06-7.64L2.06-4.97L4.13-4.97Q5.95-4.92 5.91-6.38L5.91-6.38Q5.91-7.64 4.13-7.64L4.13-7.64ZM4.59 0L0.89 0L0.89-8.58L4.69-8.58Q6.98-8.48 7.08-6.42L7.08-6.42Q7.08-5.16 5.95-4.64L5.95-4.64Q7.55-4.08 7.55-2.53L7.55-2.53Q7.41-0.09 4.59 0L4.59 0ZM4.31-3.98L2.06-3.98L2.06-0.98L4.55-0.98Q6.33-1.03 6.38-2.53L6.38-2.53Q6.38-3.98 4.31-3.98L4.31-3.98ZM19.17-1.03L24.33-1.03L24.33 0L18 0L18-8.58L24.23-8.58L24.23-7.59L19.17-7.59L19.17-4.92L23.86-4.92L23.86-3.89L19.17-3.89L19.17-1.03ZM35.02-8.58L36.19-8.58L36.19 0L35.02 0L35.02-8.58ZM46.45-1.92L46.45-2.77L47.53-2.77L47.53-2.16Q47.53-0.75 48.84-0.75L48.84-0.75Q50.20-0.75 50.20-2.25L50.20-2.25L50.20-8.58L51.38-8.58L51.38-2.30Q51.33 0.09 48.89 0.14L48.89 0.14Q46.59 0.09 46.45-1.92L46.45-1.92ZM62.34-8.58L63.52-8.58L63.52 0L62.34 0L62.34-8.58ZM75.89-8.58L80.20-1.64L80.20-8.58L81.33-8.58L81.33 0L80.02 0L75.66-6.94L75.61-6.94L75.61 0L74.48 0L74.48-8.58L75.89-8.58ZM98.53-3.61L95.91-3.61L95.91-4.59L99.66-4.59L99.66 0L98.91 0L98.63-1.08Q97.64 0.09 95.81 0.14L95.81 0.14Q94.08 0.14 93.14-0.75L93.14-0.75Q91.73-2.06 91.78-4.36L91.78-4.36Q92.11-8.63 95.86-8.81L95.86-8.81Q99.05-8.63 99.52-6L99.52-6L98.39-6Q97.92-7.78 95.81-7.83L95.81-7.83Q93.14-7.64 93-4.31L93-4.31Q93-0.75 95.86-0.75L95.86-0.75Q96.89-0.75 97.64-1.31L97.64-1.31Q98.58-2.06 98.53-3.61L98.53-3.61ZM122.06-1.92L122.06-2.77L123.14-2.77L123.14-2.16Q123.14-0.75 124.45-0.75L124.45-0.75Q125.81-0.75 125.81-2.25L125.81-2.25L125.81-8.58L126.98-8.58L126.98-2.30Q126.94 0.09 124.50 0.14L124.50 0.14Q122.20 0.09 122.06-1.92L122.06-1.92ZM137.95-8.58L139.13-8.58L139.13 0L137.95 0L137.95-8.58ZM156.38-6.09L156.38-6.09L155.30-6.09Q155.20-7.73 153.14-7.83L153.14-7.83Q151.22-7.78 151.22-6.33L151.22-6.33Q151.22-5.39 152.25-5.25L152.25-5.25L154.69-4.69Q156.61-4.22 156.61-2.34L156.61-2.34Q156.56 0.05 153.23 0.14L153.23 0.14Q151.41 0.14 150.66-0.61L150.66-0.61Q149.72-1.31 149.77-2.77L149.77-2.77L150.89-2.77Q150.94-0.80 153.23-0.75L153.23-0.75Q155.48-0.80 155.53-2.20L155.53-2.20Q155.72-3.38 153.66-3.75L153.66-3.75L151.88-4.13Q150.05-4.64 150.05-6.19L150.05-6.19Q150.19-8.72 153.05-8.81L153.05-8.81Q156.28-8.81 156.38-6.09ZM172.73-3.19L172.73-8.58L173.91-8.58L173.91-3.05Q173.77 0.05 170.39 0.14L170.39 0.14Q167.25 0.05 167.11-2.86L167.11-2.86L167.11-8.58L168.28-8.58L168.28-3.19Q168.33-0.84 170.44-0.80L170.44-0.80Q172.73-0.84 172.73-3.19L172.73-3.19Z" transform="translate(-0.890625, 8.8125)"></path></g></g></g></g></g><defs v-gra="od"></defs></svg>